<svg width="109" height="129" viewBox="0 0 109 129" fill="none" xmlns="http://www.w3.org/2000/svg">
<path d="M10 125.307C24.1667 108.474 61.5 84.9069 97.5 125.307" stroke="#0050FF" stroke-width="6" stroke-linecap="round"/>
<path d="M25.1687 58.0904C23.6661 58.0904 22.1948 57.9548 20.7548 57.6835C19.3148 57.3913 17.9374 56.9217 16.6226 56.2748C16.873 58.5287 17.0713 60.6991 17.2174 62.7861C17.3635 64.873 17.4783 66.9078 17.5617 68.8904C17.6452 70.8522 17.6974 72.7722 17.7183 74.6504C17.7391 76.5078 17.7496 78.3548 17.7496 80.1913H8.13913C8.13913 75.9757 8.05565 71.8122 7.8887 67.7009C7.72174 63.5687 7.36696 59.6035 6.82435 55.8052C6.30261 52.007 5.53043 48.4383 4.50783 45.0991C3.50609 41.7391 2.14957 38.7235 0.438261 36.0522L8.54609 30.9496C9.21391 32.0765 9.84 33.1409 10.4243 34.1426C11.0087 35.1235 11.52 36.1043 11.9583 37.0852C12.6052 36.167 13.3565 35.3217 14.2122 34.5496C15.0887 33.7774 16.0278 33.1096 17.0296 32.5461C18.0313 31.9826 19.0852 31.5235 20.1913 31.1687C21.2974 30.8139 22.4035 30.5948 23.5096 30.5113C23.8017 30.4904 24.1252 30.48 24.48 30.48C24.8557 30.48 25.2 30.48 25.513 30.48C26.4104 30.48 27.3078 30.5322 28.2052 30.6365C29.1235 30.72 30.0417 30.9078 30.96 31.2C31.8783 31.4713 32.7861 31.8783 33.6835 32.4209C34.6017 32.9635 35.4991 33.673 36.3757 34.5496L31.367 42.4383C31.367 42.4174 31.1374 42.2817 30.6783 42.0313C30.2191 41.7809 29.6243 41.5096 28.8939 41.2174C28.1843 40.9043 27.3913 40.633 26.5148 40.4035C25.6591 40.1739 24.8243 40.0696 24.0104 40.0904C23.5513 40.153 23.0296 40.2783 22.4452 40.4661C21.8817 40.633 21.3183 40.8522 20.7548 41.1235C20.1913 41.3739 19.6383 41.6661 19.0957 42C18.5739 42.3339 18.1148 42.6887 17.7183 43.0643C17.3426 43.4191 17.04 43.7948 16.8104 44.1913C16.6017 44.5878 16.5287 44.9739 16.5913 45.3496V45.3183C16.7165 45.9652 17.0817 46.5078 17.687 46.9461C18.313 47.3635 19.0435 47.6974 19.8783 47.9478C20.7339 48.1983 21.6209 48.3757 22.5391 48.48C23.4574 48.5635 24.2922 48.6052 25.0435 48.6052C25.7739 48.6052 26.567 48.553 27.4226 48.4487C28.2783 48.3235 29.1443 48.1461 30.0209 47.9165C30.9183 47.687 31.7948 47.4052 32.6504 47.0713C33.5061 46.7165 34.2991 46.3096 35.0296 45.8504L39.0678 53.3635C36.6052 55.1583 34.2052 56.4 31.8678 57.0887C29.5513 57.7565 27.3183 58.0904 25.1687 58.0904ZM47.9235 62.8487C47.9235 63.4957 48.0383 64.1009 48.2679 64.6643C48.5183 65.2278 48.8522 65.7287 49.2696 66.167C49.7079 66.5843 50.2088 66.9183 50.7722 67.1687C51.3357 67.3983 51.9409 67.513 52.5879 67.513C53.2348 67.513 53.8401 67.3983 54.4035 67.1687C54.9879 66.9183 55.4888 66.5843 55.9061 66.167C56.3444 65.7287 56.6888 65.2278 56.9392 64.6643C57.1896 64.1009 57.3148 63.4957 57.3148 62.8487C57.3148 62.2017 57.1896 61.5965 56.9392 61.033C56.6888 60.4487 56.3444 59.9478 55.9061 59.5304C55.4888 59.0922 54.9879 58.7478 54.4035 58.4974C53.8401 58.247 53.2348 58.1217 52.5879 58.1217C51.9409 58.1217 51.3357 58.247 50.7722 58.4974C50.2088 58.7478 49.7079 59.0922 49.2696 59.5304C48.8522 59.9478 48.5183 60.4487 48.2679 61.033C48.0383 61.5965 47.9235 62.2017 47.9235 62.8487ZM40.8801 62.8487C40.8801 61.2417 41.1827 59.7287 41.7879 58.3096C42.414 56.8696 43.2487 55.6174 44.2922 54.553C45.3566 53.4887 46.5983 52.6435 48.0174 52.0174C49.4366 51.3913 50.9601 51.0783 52.5879 51.0783C54.1948 51.0783 55.7079 51.3913 57.127 52.0174C58.567 52.6435 59.8192 53.4887 60.8835 54.553C61.9479 55.6174 62.7931 56.8696 63.4192 58.3096C64.0453 59.7287 64.3583 61.2417 64.3583 62.8487C64.3583 64.4765 64.0453 66 63.4192 67.4191C62.7931 68.8383 61.9479 70.08 60.8835 71.1443C59.8192 72.1878 58.567 73.0226 57.127 73.6487C55.7079 74.2539 54.1948 74.5565 52.5879 74.5565C50.9601 74.5565 49.4366 74.2539 48.0174 73.6487C46.5983 73.0226 45.3566 72.1878 44.2922 71.1443C43.2487 70.08 42.414 68.8383 41.7879 67.4191C41.1827 66 40.8801 64.4765 40.8801 62.8487ZM92.8093 58.0904C91.3067 58.0904 89.8354 57.9548 88.3954 57.6835C86.9554 57.3913 85.578 56.9217 84.2632 56.2748C84.5137 58.5287 84.7119 60.6991 84.858 62.7861C85.0041 64.873 85.1189 66.9078 85.2024 68.8904C85.2858 70.8522 85.338 72.7722 85.3589 74.6504C85.3798 76.5078 85.3902 78.3548 85.3902 80.1913H75.7798C75.7798 75.9757 75.6963 71.8122 75.5293 67.7009C75.3624 63.5687 75.0076 59.6035 74.465 55.8052C73.9432 52.007 73.1711 48.4383 72.1485 45.0991C71.1467 41.7391 69.7902 38.7235 68.0789 36.0522L76.1867 30.9496C76.8545 32.0765 77.4806 33.1409 78.065 34.1426C78.6493 35.1235 79.1606 36.1043 79.5989 37.0852C80.2458 36.167 80.9971 35.3217 81.8528 34.5496C82.7293 33.7774 83.6685 33.1096 84.6702 32.5461C85.6719 31.9826 86.7258 31.5235 87.8319 31.1687C88.938 30.8139 90.0441 30.5948 91.1502 30.5113C91.4424 30.4904 91.7658 30.48 92.1206 30.48C92.4963 30.48 92.8406 30.48 93.1537 30.48C94.0511 30.48 94.9485 30.5322 95.8458 30.6365C96.7641 30.72 97.6824 30.9078 98.6006 31.2C99.5189 31.4713 100.427 31.8783 101.324 32.4209C102.242 32.9635 103.14 33.673 104.016 34.5496L99.0076 42.4383C99.0076 42.4174 98.778 42.2817 98.3189 42.0313C97.8598 41.7809 97.265 41.5096 96.5345 41.2174C95.825 40.9043 95.0319 40.633 94.1554 40.4035C93.2998 40.1739 92.465 40.0696 91.6511 40.0904C91.1919 40.153 90.6702 40.2783 90.0858 40.4661C89.5224 40.633 88.9589 40.8522 88.3954 41.1235C87.8319 41.3739 87.2789 41.6661 86.7363 42C86.2145 42.3339 85.7554 42.6887 85.3589 43.0643C84.9832 43.4191 84.6806 43.7948 84.4511 44.1913C84.2424 44.5878 84.1693 44.9739 84.2319 45.3496V45.3183C84.3571 45.9652 84.7224 46.5078 85.3276 46.9461C85.9537 47.3635 86.6841 47.6974 87.5189 47.9478C88.3745 48.1983 89.2615 48.3757 90.1798 48.48C91.098 48.5635 91.9328 48.6052 92.6841 48.6052C93.4145 48.6052 94.2076 48.553 95.0632 48.4487C95.9189 48.3235 96.785 48.1461 97.6615 47.9165C98.5589 47.687 99.4354 47.4052 100.291 47.0713C101.147 46.7165 101.94 46.3096 102.67 45.8504L106.708 53.3635C104.246 55.1583 101.846 56.4 99.5085 57.0887C97.1919 57.7565 94.9589 58.0904 92.8093 58.0904Z" fill="#0050FF"/>
</svg>
