<svg width="18" height="18" viewBox="0 0 18 18" fill="none" xmlns="http://www.w3.org/2000/svg">
<path d="M14.6001 6.2H14.4001C13.6301 6.2 13.0001 6.83 13.0001 7.6V14.6C13.0001 15.37 13.6301 16 14.4001 16H14.6001C15.3701 16 16.0001 15.37 16.0001 14.6V7.6C16.0001 6.83 15.3701 6.2 14.6001 6.2ZM9.00006 2C8.23006 2 7.60006 2.63 7.60006 3.4V14.6C7.60006 15.37 8.23006 16 9.00006 16C9.77006 16 10.4001 15.37 10.4001 14.6V3.4C10.4001 2.63 9.77006 2 9.00006 2ZM3.40006 10C2.63006 10 2.00006 10.63 2.00006 11.4V14.6C2.00006 15.37 2.63006 16 3.40006 16C4.17006 16 4.80006 15.37 4.80006 14.6V11.4C4.80006 10.63 4.17006 10 3.40006 10Z" fill="#98a9b1"/>
</svg>
