<svg width="40" height="54" viewBox="0 0 40 54" fill="none" xmlns="http://www.w3.org/2000/svg">
<path d="M35 18.4009H32.5V13.4009C32.5 6.50088 26.9 0.900879 20 0.900879C13.1 0.900879 7.5 6.50088 7.5 13.4009V18.4009H5C2.25 18.4009 0 20.6509 0 23.4009V48.4009C0 51.1509 2.25 53.4009 5 53.4009H35C37.75 53.4009 40 51.1509 40 48.4009V23.4009C40 20.6509 37.75 18.4009 35 18.4009ZM20 40.9009C17.25 40.9009 15 38.6509 15 35.9009C15 33.1509 17.25 30.9009 20 30.9009C22.75 30.9009 25 33.1509 25 35.9009C25 38.6509 22.75 40.9009 20 40.9009ZM27.75 18.4009H12.25V13.4009C12.25 9.12588 15.725 5.65088 20 5.65088C24.275 5.65088 27.75 9.12588 27.75 13.4009V18.4009Z" fill="#0050FF"/>
</svg>
