<svg width="100" height="78" viewBox="0 0 100 78" fill="none" xmlns="http://www.w3.org/2000/svg">
<path d="M93.1641 12.6328H88.0859V9.50781C88.0859 4.66152 84.1432 0.71875 79.2969 0.71875C74.4506 0.71875 70.5078 4.66152 70.5078 9.50781V12.6328H29.4922V9.50781C29.4922 4.66152 25.5494 0.71875 20.7031 0.71875C15.8568 0.71875 11.9141 4.66152 11.9141 9.50781V12.6328H6.83594C3.0666 12.6328 0 15.6994 0 19.4688V40.9531C0 44.7225 3.0666 47.7891 6.83594 47.7891H11.9141V71.4219H8.98438C7.36641 71.4219 6.05469 72.7336 6.05469 74.3516C6.05469 75.9695 7.36641 77.2812 8.98438 77.2812H32.4219C34.0398 77.2812 35.3516 75.9695 35.3516 74.3516C35.3516 72.7336 34.0398 71.4219 32.4219 71.4219H29.4922V47.7891H70.5078V71.4219H67.5781C65.9602 71.4219 64.6484 72.7336 64.6484 74.3516C64.6484 75.9695 65.9602 77.2812 67.5781 77.2812H91.0156C92.6336 77.2812 93.9453 75.9695 93.9453 74.3516C93.9453 72.7336 92.6336 71.4219 91.0156 71.4219H88.0859V47.7891H93.1641C96.9334 47.7891 100 44.7225 100 40.9531V19.4688C100 15.6994 96.9334 12.6328 93.1641 12.6328ZM94.0947 19.1887L66.0578 41.9297H51.9217L80.8172 18.4922H93.1641C93.6045 18.4922 93.9734 18.7871 94.0947 19.1887ZM28.4842 41.9297L57.3797 18.4922H71.5158L42.6203 41.9297H28.4842ZM76.3672 9.50781C76.3672 7.89238 77.6814 6.57812 79.2969 6.57812C80.9123 6.57812 82.2266 7.89238 82.2266 9.50781V12.6328H76.3672V9.50781ZM17.7734 9.50781C17.7734 7.89238 19.0877 6.57812 20.7031 6.57812C22.3186 6.57812 23.6328 7.89238 23.6328 9.50781V12.6328H17.7734V9.50781ZM6.83594 18.4922H24.6408L5.85938 33.7262V19.4688C5.85938 18.9303 6.29746 18.4922 6.83594 18.4922ZM5.90527 41.2334L33.9422 18.4922H48.0783L19.1828 41.9297H6.83594C6.39551 41.9297 6.02656 41.6348 5.90527 41.2334ZM23.6328 71.4219H17.7734V47.7891H23.6328V71.4219ZM82.2266 71.4219H76.3672V47.7891H82.2266V71.4219ZM93.1641 41.9297H75.3592L94.1406 26.6959V40.9531C94.1406 41.4916 93.7025 41.9297 93.1641 41.9297Z" fill="#0050FF"/>
</svg>
