<svg width="24" height="24" viewBox="0 0 24 24" fill="none" xmlns="http://www.w3.org/2000/svg">
<rect width="24" height="24" rx="4" fill="#0050FF"/>
<path d="M5.25003 16.0946V18.3746C5.25003 18.4741 5.28954 18.5695 5.35987 18.6398C5.4302 18.7101 5.52558 18.7496 5.62503 18.7496H7.90503C7.95422 18.7503 8.003 18.7406 8.04822 18.7212C8.09343 18.7018 8.13408 18.6732 8.16753 18.6371L16.3575 10.4546L13.545 7.64212L5.36253 15.8246C5.32633 15.8596 5.29768 15.9015 5.27833 15.948C5.25898 15.9944 5.24935 16.0443 5.25003 16.0946ZM18.5325 8.27962C18.6722 8.1391 18.7506 7.94901 18.7506 7.75087C18.7506 7.55273 18.6722 7.36264 18.5325 7.22212L16.7775 5.46712C16.637 5.32743 16.4469 5.24902 16.2488 5.24902C16.0506 5.24902 15.8606 5.32743 15.72 5.46712L14.3475 6.83962L17.16 9.65212L18.5325 8.27962Z" fill="white"/>
</svg>
